<?xml version="1.0" encoding="utf-8"?>
<!-- Generator: Adobe Illustrator 21.0.1, SVG Export Plug-In . SVG Version: 6.00 Build 0)  -->
<svg version="1.1" id="Layer_1" xmlns="http://www.w3.org/2000/svg" xmlns:xlink="http://www.w3.org/1999/xlink" x="0px" y="0px"
	 viewBox="0 0 421 73" style="enable-background:new 0 0 421 73;" xml:space="preserve">
<style type="text/css">
	.st0{fill:#FFFFFF;}
</style>
<g>
	<path class="st0" d="M40.7,45c0.4,1,0.9,2.1,1.3,3.1c0.4-1.1,0.9-2.1,1.3-3.2c0.4-1,0.9-2.1,1.4-3l19.3-36c0.2-0.5,0.5-0.8,0.7-1.1
		c0.3-0.3,0.5-0.5,0.9-0.6C65.9,4.1,66.2,4,66.6,4c0.4,0,0.9,0,1.4,0h9.1V69H66.5V27c0-0.8,0-1.6,0.1-2.6c0-0.9,0.1-1.9,0.2-2.8
		L47.1,58.5c-0.4,0.8-1,1.5-1.8,2c-0.7,0.5-1.6,0.7-2.5,0.7h-1.7c-1,0-1.8-0.2-2.5-0.7c-0.7-0.5-1.3-1.1-1.8-2l-19.9-37
		c0.1,1,0.2,2,0.2,2.9c0,0.9,0.1,1.8,0.1,2.6v42H6.6V3.9h9.1c0.5,0,1,0,1.4,0c0.4,0,0.7,0.1,1.1,0.2c0.3,0.1,0.6,0.3,0.9,0.6
		s0.5,0.6,0.8,1.1L39.2,42C39.8,43,40.2,44,40.7,45z"/>
	<path class="st0" d="M141.7,69V22.8h6.8c1.4,0,2.4,0.7,2.8,2l0.8,3.6c0.9-1,1.9-1.8,2.9-2.6c1-0.8,2.1-1.5,3.3-2
		c1.2-0.6,2.4-1,3.7-1.3c1.3-0.3,2.8-0.5,4.3-0.5c2.5,0,4.8,0.4,6.7,1.3s3.6,2.1,4.9,3.6c1.3,1.5,2.3,3.4,3,5.5c0.7,2.1,1,4.5,1,7.1
		V69h-11.1V39.6c0-2.8-0.7-5-2-6.5c-1.3-1.5-3.3-2.3-5.9-2.3c-1.9,0-3.7,0.4-5.4,1.3c-1.7,0.9-3.3,2.1-4.8,3.6V69H141.7z"/>
	<path class="st0" d="M212,22.1c2.9,0,5.6,0.5,8,1.4c2.4,0.9,4.6,2.3,6.3,4.1c1.8,1.8,3.2,4,4.1,6.6c1,2.6,1.5,5.6,1.5,8.9
		c0,0.8,0,1.5-0.1,2.1c-0.1,0.6-0.2,1-0.4,1.3s-0.5,0.5-0.8,0.7c-0.3,0.1-0.8,0.2-1.3,0.2h-28.5c0.3,4.7,1.6,8.2,3.8,10.4
		c2.2,2.2,5.2,3.3,8.8,3.3c1.8,0,3.4-0.2,4.7-0.6c1.3-0.4,2.4-0.9,3.4-1.4c1-0.5,1.8-1,2.6-1.4s1.4-0.6,2.1-0.6
		c0.5,0,0.8,0.1,1.2,0.3c0.3,0.2,0.6,0.4,0.9,0.8l3.2,4.1c-1.2,1.4-2.6,2.6-4.1,3.6c-1.5,1-3.1,1.8-4.8,2.3c-1.7,0.6-3.4,1-5.1,1.2
		s-3.4,0.4-5,0.4c-3.2,0-6.2-0.5-9-1.6c-2.8-1.1-5.2-2.6-7.2-4.7c-2-2.1-3.6-4.7-4.8-7.7s-1.8-6.6-1.8-10.7c0-3.1,0.5-6.1,1.5-8.9
		c1-2.8,2.5-5.2,4.4-7.2c1.9-2.1,4.2-3.7,7-4.9C205.4,22.7,208.5,22.1,212,22.1z M212.2,30.1c-3.2,0-5.8,0.9-7.6,2.7
		c-1.8,1.8-3,4.4-3.5,7.8H222c0-1.4-0.2-2.8-0.6-4.1c-0.4-1.3-1-2.4-1.8-3.4c-0.8-1-1.8-1.7-3.1-2.3
		C215.3,30.4,213.9,30.1,212.2,30.1z"/>
	<path class="st0" d="M256.2,69.7c-4,0-7.1-1.1-9.2-3.4c-2.2-2.3-3.2-5.4-3.2-9.4V31.2H239c-0.6,0-1.1-0.2-1.6-0.6
		c-0.4-0.4-0.7-1-0.7-1.8v-4.4l7.4-1.2l2.3-12.6c0.1-0.6,0.4-1.1,0.8-1.4c0.4-0.3,1-0.5,1.6-0.5h5.8v14.5H267v7.9h-12.2v25
		c0,1.4,0.4,2.6,1.1,3.4s1.7,1.2,2.9,1.2c0.7,0,1.3-0.1,1.7-0.2c0.5-0.2,0.9-0.3,1.2-0.5s0.7-0.4,0.9-0.5c0.3-0.2,0.5-0.2,0.8-0.2
		c0.3,0,0.6,0.1,0.8,0.2c0.2,0.2,0.4,0.4,0.7,0.7l3.3,5.4c-1.6,1.3-3.5,2.4-5.6,3.1C260.6,69.4,258.4,69.7,256.2,69.7z"/>
	<path class="st0" d="M289.3,9.4c0,1-0.2,1.9-0.6,2.7c-0.4,0.8-0.9,1.6-1.6,2.2c-0.6,0.6-1.4,1.1-2.3,1.5c-0.9,0.4-1.8,0.6-2.8,0.6
		c-1,0-1.9-0.2-2.7-0.6c-0.9-0.4-1.6-0.9-2.2-1.5c-0.6-0.6-1.1-1.4-1.5-2.2s-0.6-1.7-0.6-2.7c0-1,0.2-1.9,0.6-2.8
		c0.4-0.9,0.9-1.6,1.5-2.2s1.4-1.1,2.2-1.5c0.9-0.4,1.8-0.6,2.7-0.6c1,0,1.9,0.2,2.8,0.6c0.9,0.4,1.6,0.9,2.3,1.5
		c0.6,0.6,1.2,1.4,1.6,2.2C289.1,7.5,289.3,8.4,289.3,9.4z M287.7,22.8V69h-11.1V22.8H287.7z"/>
	<path class="st0" d="M300.2,69V22.8h6.8c1.4,0,2.4,0.7,2.8,2l0.7,3.4c0.8-0.9,1.7-1.7,2.5-2.5c0.9-0.7,1.8-1.4,2.8-1.9
		c1-0.5,2.1-1,3.2-1.3s2.4-0.5,3.8-0.5c2.9,0,5.3,0.8,7.2,2.4c1.9,1.6,3.3,3.7,4.2,6.3c0.7-1.5,1.6-2.8,2.7-3.9
		c1.1-1.1,2.3-2,3.6-2.7c1.3-0.7,2.7-1.2,4.1-1.5c1.5-0.3,2.9-0.5,4.4-0.5c2.5,0,4.8,0.4,6.8,1.2c2,0.8,3.6,1.9,5,3.4
		c1.4,1.5,2.4,3.3,3.1,5.5c0.7,2.2,1.1,4.6,1.1,7.4V69H354V39.6c0-2.9-0.6-5.2-1.9-6.6c-1.3-1.5-3.2-2.2-5.7-2.2
		c-1.1,0-2.2,0.2-3.2,0.6c-1,0.4-1.8,1-2.6,1.7c-0.7,0.7-1.3,1.7-1.7,2.8c-0.4,1.1-0.6,2.4-0.6,3.8V69h-11.2V39.6
		c0-3.1-0.6-5.3-1.9-6.8c-1.2-1.4-3.1-2.1-5.5-2.1c-1.6,0-3.1,0.4-4.5,1.2c-1.4,0.8-2.7,1.9-3.9,3.3V69H300.2z"/>
	<path class="st0" d="M395.1,22.1c2.9,0,5.6,0.5,8,1.4c2.4,0.9,4.6,2.3,6.3,4.1c1.8,1.8,3.2,4,4.1,6.6c1,2.6,1.5,5.6,1.5,8.9
		c0,0.8,0,1.5-0.1,2.1c-0.1,0.6-0.2,1-0.4,1.3s-0.5,0.5-0.8,0.7c-0.3,0.1-0.8,0.2-1.3,0.2H384c0.3,4.7,1.6,8.2,3.8,10.4
		c2.2,2.2,5.2,3.3,8.8,3.3c1.8,0,3.4-0.2,4.7-0.6c1.3-0.4,2.4-0.9,3.4-1.4c1-0.5,1.8-1,2.6-1.4s1.4-0.6,2.1-0.6
		c0.5,0,0.8,0.1,1.2,0.3c0.3,0.2,0.6,0.4,0.9,0.8l3.2,4.1c-1.2,1.4-2.6,2.6-4.1,3.6c-1.5,1-3.1,1.8-4.8,2.3c-1.7,0.6-3.4,1-5.1,1.2
		s-3.4,0.4-5,0.4c-3.2,0-6.2-0.5-9-1.6c-2.8-1.1-5.2-2.6-7.2-4.7c-2-2.1-3.6-4.7-4.8-7.7s-1.8-6.6-1.8-10.7c0-3.1,0.5-6.1,1.5-8.9
		c1-2.8,2.5-5.2,4.4-7.2c1.9-2.1,4.2-3.7,7-4.9C388.5,22.7,391.6,22.1,395.1,22.1z M395.3,30.1c-3.2,0-5.8,0.9-7.6,2.7
		c-1.8,1.8-3,4.4-3.5,7.8h20.9c0-1.4-0.2-2.8-0.6-4.1c-0.4-1.3-1-2.4-1.8-3.4c-0.8-1-1.8-1.7-3.1-2.3
		C398.4,30.4,397,30.1,395.3,30.1z"/>
</g>
<g>
	<path class="st0" d="M110,64.4c-10.1,0-18.4-8.3-18.4-18.4c0-10.1,8.3-18.4,18.4-18.4s18.4,8.3,18.4,18.4S120.1,64.4,110,64.4z
		 M110,23c-12.7,0-23,10.3-23,23s10.3,23,23,23s23-10.3,23-23S122.7,23,110,23z"/>
	<path class="st0" d="M112.2,45.3c0-0.1,0-0.2,0-0.4V35c0-1.3-1-2.3-2.3-2.3c-1.3,0-2.3,1-2.3,2.3v10c0,0.2,0,2.4,0.7,3.1l7.1,6.4
		c0.4,0.4,1,0.6,1.5,0.6c0.6,0,1.3-0.3,1.7-0.8c0.8-0.9,0.8-2.4-0.2-3.2L112.2,45.3z"/>
</g>
</svg>
