<?xml version="1.0" encoding="utf-8"?>
<!-- Generator: Adobe Illustrator 21.0.1, SVG Export Plug-In . SVG Version: 6.00 Build 0)  -->
<svg version="1.1" id="Layer_1" xmlns="http://www.w3.org/2000/svg" xmlns:xlink="http://www.w3.org/1999/xlink" x="0px" y="0px"
	 viewBox="0 0 76.2 61.8" style="enable-background:new 0 0 76.2 61.8;" xml:space="preserve">
<style type="text/css">
	.st0{fill:#A1909F;}
</style>
<g>
	<path class="st0" d="M74.2,19.8L62.8,2.1h-50L1.3,19.8c0,4,3.3,7.3,7.3,7.3c4,0,7.3-3.1,7.3-7.3c0,4,3.3,7.3,7.3,7.3
		c4,0,7.3-3.1,7.3-7.3c0,4,3.3,7.3,7.3,7.3c4,0,7.3-3.1,7.3-7.3c0,4,3.3,7.3,7.3,7.3c4,0,7.3-3.1,7.3-7.3c0,4,3.3,7.3,7.3,7.3
		C70.9,27.1,74.2,24,74.2,19.8L74.2,19.8z"/>
	<path class="st0" d="M66.9,35.4c-2.3,0-4.4-0.4-6.2-1.2V50H14.8V34.2c-1.9,0.8-4,1.2-6.2,1.2c-0.6,0-1.5,0-2.1-0.2v23.1H69l0-23.1
		C68.4,35.4,67.5,35.4,66.9,35.4L66.9,35.4z"/>
</g>
</svg>
