<?xml version="1.0" encoding="utf-8"?>
<!-- Generator: Adobe Illustrator 21.0.1, SVG Export Plug-In . SVG Version: 6.00 Build 0)  -->
<svg version="1.1" id="Layer_1" xmlns="http://www.w3.org/2000/svg" xmlns:xlink="http://www.w3.org/1999/xlink" x="0px" y="0px"
	 viewBox="0 0 100 100" style="enable-background:new 0 0 100 100;" xml:space="preserve">
<style type="text/css">
	.st0{fill:#FFFFFF;}
</style>
<g>
	<path class="st0" d="M35.6,2.5H13.3c-2.1,0-3.9,1.7-3.9,3.9v87.3c0,2.1,1.7,3.9,3.9,3.9h22.2c2.1,0,3.9-1.7,3.9-3.9V6.4
		C39.4,4.2,37.7,2.5,35.6,2.5L35.6,2.5z"/>
	<path class="st0" d="M86.7,2.5H64.4c-2.1,0-3.9,1.7-3.9,3.9v87.3c0,2.1,1.7,3.9,3.9,3.9h22.2c2.1,0,3.9-1.7,3.9-3.9l0-87.3
		C90.5,4.2,88.8,2.5,86.7,2.5L86.7,2.5z"/>
</g>
</svg>
